<svg xmlns="http://www.w3.org/2000/svg" width="28" height="20" fill="none" viewBox="0 0 28 20"><rect width="28" height="20" fill="#fff" rx="2"/><mask id="mask0" style="mask-type:alpha" width="28" height="20" x="0" y="0" maskUnits="userSpaceOnUse"><rect width="28" height="20" fill="#fff" rx="2"/></mask><g mask="url(#mask0)"><rect width="28" height="20" fill="#1537D1"/><rect width="14.667" height="20" x="13.333" fill="#EA3058"/><path fill="#FFCF3C" fill-rule="evenodd" d="M9.33325 20H18.6666V0H9.33325V20Z" clip-rule="evenodd"/><path fill="#FFEDB1" fill-rule="evenodd" d="M12.6667 8.66683H14.0001V9.3335H12.6667V8.66683Z" clip-rule="evenodd"/><path stroke="#D32E28" stroke-width=".667" d="M12.3924 8.69435C12.3762 8.50001 12.5296 8.33333 12.7246 8.33333H15.2755C15.4706 8.33333 15.6239 8.50001 15.6077 8.69435L15.4364 10.7497C15.3933 11.268 14.96 11.6667 14.4399 11.6667H13.5603C13.0402 11.6667 12.6069 11.268 12.5637 10.7497L12.3924 8.69435Z"/><path fill="#D32E28" fill-rule="evenodd" d="M12.6667 9.33333H15.3334V10H14.6667H13.3334H12.6667V9.33333Z" clip-rule="evenodd"/></g></svg>