<svg xmlns="http://www.w3.org/2000/svg" width="28" height="20" fill="none" viewBox="0 0 28 20"><rect width="28" height="20" fill="#fff" rx="2"/><mask id="mask0" style="mask-type:alpha" width="28" height="20" x="0" y="0" maskUnits="userSpaceOnUse"><rect width="28" height="20" fill="#fff" rx="2"/></mask><g mask="url(#mask0)"><path fill="#E54252" fill-rule="evenodd" d="M0 13.3333H28V0H0V13.3333Z" clip-rule="evenodd"/><path fill="#5CBE6B" fill-rule="evenodd" d="M0 20.0002H28V13.3335H0V20.0002Z" clip-rule="evenodd"/><path fill="#fff" fill-rule="evenodd" d="M0 0H4V3L3.33333 4L4 5V7L3.33333 8L4 9V11L3.33333 12L4 13V15L3.33333 16L4 17V20H0V0Z" clip-rule="evenodd"/><path fill="#E54252" fill-rule="evenodd" d="M-0.666667 2L-2 4L-0.666667 6L-2 8L-0.666667 10L-2 12L-0.666667 14L-2 16L-0.666667 18L0.666667 16L-0.666667 14L0.666667 12L-0.666667 10L0.666667 8L-0.666667 6L0.666667 4L-0.666667 2Z" clip-rule="evenodd"/><path fill="#E54252" fill-rule="evenodd" d="M0.666748 2L2.00008 0L3.33341 2L2.00008 4L0.666748 2ZM2.00008 8L0.666748 6L2.00008 4L3.33341 6L2.00008 8ZM2.00008 12L0.666748 10L2.00008 8L3.33341 10L2.00008 12ZM2.00008 16L3.33341 14L2.00008 12L0.666748 14L2.00008 16ZM2.00008 16L3.33341 18L2.00008 20L0.666748 18L2.00008 16Z" clip-rule="evenodd"/></g></svg>