<svg xmlns="http://www.w3.org/2000/svg" width="28" height="20" fill="none" viewBox="0 0 28 20"><rect width="27.5" height="19.5" x=".25" y=".25" fill="#fff" stroke="#F5F5F5" stroke-width=".5" rx="1.75"/><mask id="mask0" style="mask-type:alpha" width="28" height="20" x="0" y="0" maskUnits="userSpaceOnUse"><rect width="27.5" height="19.5" x=".25" y=".25" fill="#fff" stroke="#fff" stroke-width=".5" rx="1.75"/></mask><g mask="url(#mask0)"><path fill="#048345" fill-rule="evenodd" d="M0 20H14.6667V0H0V20Z" clip-rule="evenodd"/><path fill="#E81B42" fill-rule="evenodd" d="M17.3334 11.0402L15.766 12.1575L16.3443 10.3215L14.7973 9.17612L16.7221 9.15879L17.3334 7.3335L17.9447 9.15879L19.8696 9.17612L18.3225 10.3215L18.9008 12.1575L17.3334 11.0402Z" clip-rule="evenodd"/><path fill="#E81B42" fill-rule="evenodd" d="M17.68 14.3813C16.6519 15.3853 15.2702 16 13.7509 16C10.5748 16 8 13.3137 8 10C8 6.68629 10.5748 4 13.7509 4C15.2702 4 16.6519 4.61468 17.68 5.61867C16.9709 5.28113 16.1688 5.09091 15.3193 5.09091C12.4319 5.09091 10.0912 7.28878 10.0912 10C10.0912 12.7112 12.4319 14.9091 15.3193 14.9091C16.1688 14.9091 16.9709 14.7189 17.68 14.3813Z" clip-rule="evenodd"/></g></svg>