<svg xmlns="http://www.w3.org/2000/svg" width="28" height="20" fill="none" viewBox="0 0 28 20"><rect width="28" height="20" fill="#fff" rx="2"/><mask id="mask0" style="mask-type:alpha" width="28" height="20" x="0" y="0" maskUnits="userSpaceOnUse"><rect width="28" height="20" fill="#fff" rx="2"/></mask><g mask="url(#mask0)"><rect width="28" height="20" fill="#0A17A7"/><path fill="#fff" fill-rule="evenodd" d="M-1.2825 -1.9165L10.6666 6.14329V-1.33339H17.3333V6.14329L29.2824 -1.9165L30.7736 0.294263L21.3262 6.66661H28V13.3333H21.3262L30.7736 19.7056L29.2824 21.9164L17.3333 13.8566V21.3333H10.6666V13.8566L-1.2825 21.9164L-2.77368 19.7056L6.67371 13.3333H-3.14713e-05V6.66661H6.67371L-2.77368 0.294263L-1.2825 -1.9165Z" clip-rule="evenodd"/><path stroke="#DB1F35" stroke-linecap="round" stroke-width=".667" d="M18.668 6.33219L31.3333 -2"/><path stroke="#DB1F35" stroke-linecap="round" stroke-width=".667" d="M20.0127 13.6978L31.3665 21.3506"/><path stroke="#DB1F35" stroke-linecap="round" stroke-width=".667" d="M8.00562 6.31055L-3.8374 -1.6709"/><path stroke="#DB1F35" stroke-linecap="round" stroke-width=".667" d="M9.29012 13.605L-3.8374 22.3105"/><path fill="#E6273E" fill-rule="evenodd" d="M0 12H12V20H16V12H28V8H16V0H12V8H0V12Z" clip-rule="evenodd"/></g></svg>