<svg xmlns="http://www.w3.org/2000/svg" width="28" height="20" fill="none" viewBox="0 0 28 20"><rect width="27.5" height="19.5" x=".25" y=".25" fill="#fff" stroke="#F5F5F5" stroke-width=".5" rx="1.75"/><mask id="mask0" style="mask-type:alpha" width="28" height="20" x="0" y="0" maskUnits="userSpaceOnUse"><rect width="27.5" height="19.5" x=".25" y=".25" fill="#fff" stroke="#fff" stroke-width=".5" rx="1.75"/></mask><g mask="url(#mask0)"><path fill="#FF202D" fill-rule="evenodd" d="M0 6.66667H28V0H0V6.66667Z" clip-rule="evenodd"/><path fill="#1895DB" fill-rule="evenodd" d="M10.6667 5.33317L11.3334 4.6665L12.0001 5.33317V6.6665H10.6667V5.33317ZM13.3334 5.33317L14.0001 4.6665L14.6667 5.33317V6.6665H13.3334V5.33317ZM16.6667 4.6665L16.0001 5.33317V6.6665H17.3334V5.33317L16.6667 4.6665Z" clip-rule="evenodd" opacity=".5"/><path fill="#191F94" fill-rule="evenodd" d="M12.6667 4.6665L12 5.33317V6.6665H13.3333V5.33317L12.6667 4.6665ZM15.3333 4.6665L14.6667 5.33317V6.6665H16V5.33317L15.3333 4.6665Z" clip-rule="evenodd" opacity=".5"/><path fill="#2027AC" fill-rule="evenodd" d="M0 20.0002H28V13.3335H0V20.0002Z" clip-rule="evenodd"/><path fill="url(#paint0_linear)" fill-rule="evenodd" d="M12.0001 6.6665H11.3334L10.6667 7.99984H12.0001V9.33317H10.6667V10.6665H12.0001V11.9998H10.6667V13.3332H12.0001V14.6665H13.3334V13.3332H14.6667V14.6665H16.0001V13.3332H17.3334V11.9998H16.0001V10.6665H17.3334V9.33317H16.0001V7.99984H17.3334L16.6667 6.6665H16.0001V7.99984H14.6667V6.6665H13.3334V7.99984H12.0001V6.6665ZM13.3334 9.33317V7.99984H14.6667V9.33317H13.3334ZM13.3334 10.6665V9.33317H12.0001V10.6665H13.3334ZM14.6667 10.6665H13.3334V11.9998H12.0001V13.3332H13.3334V11.9998H14.6667V13.3332H16.0001V11.9998H14.6667V10.6665ZM14.6667 10.6665H16.0001V9.33317H14.6667V10.6665Z" clip-rule="evenodd"/></g><defs><linearGradient id="paint0_linear" x1="10.667" x2="10.667" y1="6.667" y2="14.666" gradientUnits="userSpaceOnUse"><stop stop-color="#FF212E"/><stop offset="1" stop-color="#FD0D1B"/></linearGradient></defs></svg>