<svg xmlns="http://www.w3.org/2000/svg" width="28" height="20" fill="none" viewBox="0 0 28 20"><rect width="27.5" height="19.5" x=".25" y=".25" fill="#fff" stroke="#F5F5F5" stroke-width=".5" rx="1.75"/><mask id="mask0" style="mask-type:alpha" width="28" height="20" x="0" y="0" maskUnits="userSpaceOnUse"><rect width="27.5" height="19.5" x=".25" y=".25" fill="#fff" stroke="#fff" stroke-width=".5" rx="1.75"/></mask><g mask="url(#mask0)"><path fill="#199E56" fill-rule="evenodd" d="M0 20.0002H28V13.3335H0V20.0002Z" clip-rule="evenodd"/><path fill="#262626" fill-rule="evenodd" d="M0 6.66667H28V0H0V6.66667Z" clip-rule="evenodd"/><path fill="#E6223A" fill-rule="evenodd" d="M0 0L13.3333 10L0 20V0Z" clip-rule="evenodd"/><path fill="#fff" fill-rule="evenodd" d="M4.66675 11L3.79898 11.8019L3.88492 10.6235L2.71689 10.445L3.69182 9.77748L3.10309 8.75302L4.23286 9.09903L4.66675 8L5.10063 9.09903L6.23041 8.75302L5.64168 9.77748L6.6166 10.445L5.44858 10.6235L5.53452 11.8019L4.66675 11Z" clip-rule="evenodd"/></g></svg>