<svg xmlns="http://www.w3.org/2000/svg" width="28" height="20" fill="none" viewBox="0 0 28 20"><rect width="28" height="20" fill="#fff" rx="2"/><mask id="mask0" style="mask-type:alpha" width="28" height="20" x="0" y="0" maskUnits="userSpaceOnUse"><rect width="28" height="20" fill="#fff" rx="2"/></mask><g mask="url(#mask0)"><rect width="28" height="20" fill="#F22A46"/><path fill="#FFF04D" fill-rule="evenodd" d="M14.0001 13.3332C15.841 13.3332 17.3334 11.8408 17.3334 9.99984C17.3334 8.15889 15.841 6.6665 14.0001 6.6665C12.1591 6.6665 10.6667 8.15889 10.6667 9.99984C10.6667 11.8408 12.1591 13.3332 14.0001 13.3332Z" clip-rule="evenodd"/><path fill="#FFF04D" fill-rule="evenodd" d="M12.3683 17.1495L14.0001 14.7137L15.6319 17.1495L16.0452 14.2469L18.5723 15.7335L17.6853 12.9389L20.6072 13.1819L18.5955 11.0489L21.3334 10.0001L18.5955 8.95118L20.6072 6.81824L17.6853 7.06117L18.5723 4.26663L16.0452 5.75324L15.6319 2.85059L14.0001 5.28644L12.3683 2.85059L11.9549 5.75324L9.42782 4.26663L10.3148 7.06117L7.39298 6.81824L9.40465 8.95118L6.66675 10.0001L9.40465 11.0489L7.39298 13.1819L10.3148 12.9389L9.42782 15.7335L11.9549 14.2469L12.3683 17.1495ZM18.6667 10.0001C18.6667 12.5774 16.5774 14.6667 14.0001 14.6667C11.4228 14.6667 9.33341 12.5774 9.33341 10.0001C9.33341 7.42273 11.4228 5.33339 14.0001 5.33339C16.5774 5.33339 18.6667 7.42273 18.6667 10.0001Z" clip-rule="evenodd"/></g></svg>