<svg xmlns="http://www.w3.org/2000/svg" width="28" height="20" fill="none" viewBox="0 0 28 20"><rect width="27.5" height="19.5" x=".25" y=".25" fill="#fff" stroke="#F5F5F5" stroke-width=".5" rx="1.75"/><mask id="mask0" style="mask-type:alpha" width="28" height="20" x="0" y="0" maskUnits="userSpaceOnUse"><rect width="27.5" height="19.5" x=".25" y=".25" fill="#fff" stroke="#fff" stroke-width=".5" rx="1.75"/></mask><g mask="url(#mask0)"><path fill="#E1244A" fill-rule="evenodd" d="M28 0H13.3333V2.66667H28V0ZM28 5.33333H13.3333V8H28V5.33333ZM13.3333 10.6667H28V13.3333H13.3333V10.6667ZM28 16H0V18.6667H28V16Z" clip-rule="evenodd"/><rect width="13.333" height="13.333" fill="#0C3F8E"/><path fill="#fff" fill-rule="evenodd" d="M6.66675 8.2265L4.31561 9.90257L5.1831 7.14857L2.86252 5.43044L5.7498 5.40444L6.66675 2.6665L7.58369 5.40444L10.471 5.43044L8.1504 7.14857L9.01789 9.90257L6.66675 8.2265Z" clip-rule="evenodd"/></g></svg>