<svg xmlns="http://www.w3.org/2000/svg" width="28" height="20" fill="none" viewBox="0 0 28 20"><rect width="28" height="20" fill="#fff" rx="2"/><mask id="mask0" style="mask-type:alpha" width="28" height="20" x="0" y="0" maskUnits="userSpaceOnUse"><rect width="28" height="20" fill="#fff" rx="2"/></mask><g mask="url(#mask0)"><rect width="28" height="20" fill="#FF2936"/><path fill="#128415" fill-rule="evenodd" d="M0 20H10.6667V0H0V20Z" clip-rule="evenodd"/><path stroke="#FAF94F" stroke-width="1.333" d="M10.6667 13.3335C12.5076 13.3335 14 11.8411 14 10.0002C14 8.15921 12.5076 6.66683 10.6667 6.66683C8.82572 6.66683 7.33333 8.15921 7.33333 10.0002C7.33333 11.8411 8.82572 13.3335 10.6667 13.3335Z"/><path fill="#fff" fill-rule="evenodd" d="M9.33325 8.33333C9.33325 8.14924 9.48249 8 9.66659 8H11.6666C11.8507 8 11.9999 8.14924 11.9999 8.33333V10.6667C11.9999 11.403 11.403 12 10.6666 12C9.93021 12 9.33325 11.403 9.33325 10.6667V8.33333Z" clip-rule="evenodd"/><path fill="#1D50B5" fill-rule="evenodd" d="M10.6667 10.6665C11.0349 10.6665 11.3333 9.70136 11.3333 9.33317C11.3333 8.96498 11.0349 8.6665 10.6667 8.6665C10.2985 8.6665 10 8.96498 10 9.33317C10 9.70136 10.2985 10.6665 10.6667 10.6665Z" clip-rule="evenodd"/></g></svg>