<svg xmlns="http://www.w3.org/2000/svg" width="28" height="20" fill="none" viewBox="0 0 28 20"><rect width="27.5" height="19.5" x=".25" y=".25" fill="#fff" stroke="#F5F5F5" stroke-width=".5" rx="1.75"/><mask id="mask0" style="mask-type:alpha" width="28" height="20" x="0" y="0" maskUnits="userSpaceOnUse"><rect width="27.5" height="19.5" x=".25" y=".25" fill="#fff" stroke="#fff" stroke-width=".5" rx="1.75"/></mask><g mask="url(#mask0)"><path fill="#0C47B7" fill-rule="evenodd" d="M0 13.3334H28V6.66675H9.24398V5.33342C9.24398 5.33342 8.30367 4.66675 7.33333 4.66675C6.36299 4.66675 5.33333 5.33342 5.33333 5.33342V6.66675H0V13.3334ZM8.66667 8.00008C8.66667 8.73646 8.06971 9.33342 7.33333 9.33342C6.59695 9.33342 6 8.73646 6 8.00008C6 7.2637 6.59695 6.66675 7.33333 6.66675C8.06971 6.66675 8.66667 7.2637 8.66667 8.00008Z" clip-rule="evenodd"/><g filter="url(#filter0_d)"><path fill="#E53B35" fill-rule="evenodd" d="M0 19.9999H28V13.3333H0V19.9999Z" clip-rule="evenodd"/></g></g><defs><filter id="filter0_d" width="28" height="6.667" x="0" y="13.333" color-interpolation-filters="sRGB" filterUnits="userSpaceOnUse"><feFlood flood-opacity="0" result="BackgroundImageFix"/><feColorMatrix in="SourceAlpha" result="hardAlpha" type="matrix" values="0 0 0 0 0 0 0 0 0 0 0 0 0 0 0 0 0 0 127 0"/><feOffset/><feColorMatrix type="matrix" values="0 0 0 0 0 0 0 0 0 0 0 0 0 0 0 0 0 0 0.06 0"/><feBlend in2="BackgroundImageFix" mode="normal" result="effect1_dropShadow"/><feBlend in="SourceGraphic" in2="effect1_dropShadow" mode="normal" result="shape"/></filter></defs></svg>