<svg xmlns="http://www.w3.org/2000/svg" width="28" height="20" fill="none" viewBox="0 0 28 20"><rect width="28" height="20" fill="#fff" rx="2"/><mask id="mask0" style="mask-type:alpha" width="28" height="20" x="0" y="0" maskUnits="userSpaceOnUse"><rect width="28" height="20" fill="#fff" rx="2"/></mask><g mask="url(#mask0)"><path fill="#2ACB41" fill-rule="evenodd" d="M0 19.9999H28V13.3333H0V19.9999Z" clip-rule="evenodd"/><path fill="#2ACB41" fill-rule="evenodd" d="M0 6.66667H28V0H0V6.66667Z" clip-rule="evenodd"/><path fill="#FDD043" fill-rule="evenodd" d="M0 13.3334H28V6.66675H0V13.3334Z" clip-rule="evenodd"/><path fill="#E71E43" fill-rule="evenodd" d="M0 0L10.6667 10L0 20V0Z" clip-rule="evenodd"/><path fill="#262626" fill-rule="evenodd" d="M14.6667 11.0933L13.0992 12.1573L13.6268 10.3378L12.1305 9.17587L14.024 9.11539L14.6667 7.33325L15.3093 9.11539L17.2028 9.17587L15.7065 10.3378L16.2341 12.1573L14.6667 11.0933Z" clip-rule="evenodd"/><path fill="#262626" fill-rule="evenodd" d="M21.3334 11.0933L19.766 12.1573L20.2936 10.3378L18.7973 9.17587L20.6908 9.11539L21.3334 7.33325L21.9761 9.11539L23.8696 9.17587L22.3732 10.3378L22.9008 12.1573L21.3334 11.0933Z" clip-rule="evenodd"/></g></svg>