<svg xmlns="http://www.w3.org/2000/svg" width="28" height="20" fill="none" viewBox="0 0 28 20"><rect width="27.5" height="19.5" x=".25" y=".25" fill="#fff" stroke="#F5F5F5" stroke-width=".5" rx="1.75"/><mask id="mask0" style="mask-type:alpha" width="28" height="20" x="0" y="0" maskUnits="userSpaceOnUse"><rect width="27.5" height="19.5" x=".25" y=".25" fill="#fff" stroke="#fff" stroke-width=".5" rx="1.75"/></mask><g mask="url(#mask0)"><path fill="#1B57C4" fill-rule="evenodd" d="M0 6.66667H28V0H0V6.66667Z" clip-rule="evenodd"/><path fill="#1B57C4" fill-rule="evenodd" d="M0 20.0002H28V13.3335H0V20.0002Z" clip-rule="evenodd"/><path fill="url(#paint0_linear)" fill-rule="evenodd" d="M12.3999 7.8667C11.7522 8.35321 11.3333 9.12778 11.3333 10.0002C11.3333 11.4729 12.5272 12.6669 13.9999 12.6669C15.4727 12.6669 16.6666 11.4729 16.6666 10.0002C16.6666 9.12778 16.2476 8.35321 15.6 7.8667L14.6666 10.6669H13.3333L12.3999 7.8667Z" clip-rule="evenodd"/><path fill="#F9C92E" fill-rule="evenodd" d="M13.9999 7.3335L14.6666 10.6668H13.3333L13.9999 7.3335Z" clip-rule="evenodd"/></g><defs><linearGradient id="paint0_linear" x1="11.333" x2="11.333" y1="7.867" y2="12.667" gradientUnits="userSpaceOnUse"><stop stop-color="#3C7839"/><stop offset="1" stop-color="#31642E"/></linearGradient></defs></svg>