<svg xmlns="http://www.w3.org/2000/svg" width="28" height="20" fill="none" viewBox="0 0 28 20"><rect width="28" height="20" fill="#fff" rx="2"/><mask id="mask0" style="mask-type:alpha" width="28" height="20" x="0" y="0" maskUnits="userSpaceOnUse"><rect width="28" height="20" fill="#fff" rx="2"/></mask><g mask="url(#mask0)"><path fill="#369D0C" fill-rule="evenodd" d="M0 2.66667H28V0H0V2.66667Z" clip-rule="evenodd"/><path fill="#369D0C" fill-rule="evenodd" d="M0 19.9999H28V17.3333H0V19.9999Z" clip-rule="evenodd"/><path fill="#369D0C" fill-rule="evenodd" d="M0 7.99992H28V5.33325H0V7.99992Z" clip-rule="evenodd"/><path fill="#369D0C" fill-rule="evenodd" d="M0 14.6667H28V12H0V14.6667Z" clip-rule="evenodd"/><path fill="#262626" fill-rule="evenodd" d="M0 12H28V8H0V12Z" clip-rule="evenodd"/><path fill="#FFD40E" fill-rule="evenodd" d="M0 5.33341H28V2.66675H0V5.33341Z" clip-rule="evenodd"/><path fill="#FFD40E" fill-rule="evenodd" d="M0 17.3334H28V14.6667H0V17.3334Z" clip-rule="evenodd"/><path fill="#fff" stroke="#262626" stroke-width="1.333" d="M-0.666585 19.3333V0.666667H-0.222141L12.2223 10L-0.222141 19.3333H-0.666585Z"/><path fill="url(#paint0_linear)" fill-rule="evenodd" d="M4.00008 11.3001L2.0408 12.6968L2.76371 10.4018L0.829893 8.97002L3.23596 8.94836L4.00008 6.66675L4.7642 8.94836L7.17027 8.97002L5.23645 10.4018L5.95937 12.6968L4.00008 11.3001Z" clip-rule="evenodd"/></g><defs><linearGradient id="paint0_linear" x1=".667" x2=".667" y1="6.667" y2="13.333" gradientUnits="userSpaceOnUse"><stop stop-color="#F12F1F"/><stop offset="1" stop-color="#DE2010"/></linearGradient></defs></svg>